<svg width="22" height="19" viewBox="0 0 22 19" fill="none" xmlns="http://www.w3.org/2000/svg">
<circle cx="7" cy="7.5" r="1" fill="white"/>
<circle cx="11" cy="7.5" r="1" fill="white"/>
<circle cx="15" cy="7.5" r="1" fill="white"/>
<path d="M18.425 15.0223C20.3994 15.0223 22 13.5651 22 11.7675V3.25484C22 1.45724 20.3994 0 18.425 0H3.575C1.60058 0 0 1.45724 0 3.25484V11.7675C0 13.5651 1.60058 15.0223 3.575 15.0223H9.88627L15.4015 18.7505C16.0096 19.1646 16.8713 19.0515 17.3261 18.4979C17.5039 18.2814 17.6 18.0184 17.6 17.7483L17.6009 15.0223H18.425ZM10.4351 13.5201H3.575C2.51185 13.5201 1.65 12.7354 1.65 11.7675V3.25484C1.65 2.2869 2.51185 1.50223 3.575 1.50223H18.425C19.4881 1.50223 20.35 2.2869 20.35 3.25484V11.7675C20.35 12.7354 19.4881 13.5201 18.425 13.5201H15.9513L15.9511 14.271L15.95 17.498L10.4351 13.5201Z" fill="white"/>
</svg>
