<svg width="22" height="23" viewBox="0 0 22 23" fill="none" xmlns="http://www.w3.org/2000/svg">
<path d="M0.660257 7.24485C0.196453 7.83644 -0.0259838 8.47062 0.0024128 9.12373C0.0308094 9.84311 0.352633 10.4063 0.617664 10.7518C0.31004 11.5185 0.191721 12.7253 1.21872 13.6624C1.97122 14.3486 3.24904 14.6563 5.01907 14.5711C6.26377 14.5143 7.30497 14.2824 7.34756 14.2729H7.3523C7.58893 14.2303 7.83976 14.1783 8.09533 14.1215C8.11426 14.4244 8.0622 15.1769 7.50374 16.8712C6.84116 18.8873 6.87903 20.4302 7.62679 21.4619C8.41242 22.5457 9.66659 22.6309 10.0357 22.6309C10.3907 22.6309 10.7172 22.4841 10.9491 22.2144C11.4745 21.6039 11.413 20.4775 11.3467 19.9569C11.9714 18.2815 13.7225 14.1735 15.2038 13.0329C15.2322 13.014 15.2559 12.9904 15.2796 12.9667C15.715 12.5076 16.0084 12.0107 16.2072 11.5753C16.4864 11.7267 16.8035 11.8119 17.1443 11.8119H20.0312C21.1197 11.8119 22 10.9269 22 9.8431V2.15247C22 1.06395 21.115 0.183666 20.0312 0.183666H17.1443C16.723 0.183666 16.3302 0.316181 16.0084 0.54335L14.8962 0.410835C14.7258 0.387173 11.6969 0.00382233 8.58753 0.0653477C8.02434 0.0227528 7.49428 -0.000911713 7.00207 -0.000911713C6.15492 -0.000911713 5.41662 0.0653477 4.80137 0.197863C3.35316 0.505487 2.36403 1.12074 1.86236 2.02468C1.47902 2.71566 1.47902 3.4019 1.54054 3.83731C0.598734 4.6892 0.43309 5.631 0.466219 6.29358C0.485149 6.67693 0.570335 7.00348 0.660257 7.24485ZM20.0312 1.46149C20.4145 1.46149 20.7222 1.77385 20.7222 2.15247V9.84784C20.7222 10.2312 20.4098 10.5388 20.0312 10.5388H17.1443C16.7609 10.5388 16.4533 10.2265 16.4533 9.84784V2.1572C16.4533 1.77385 16.7656 1.46623 17.1443 1.46623H20.0312V1.46149ZM1.87183 7.79858C2.0706 7.59034 2.10847 7.27325 1.95702 7.02715C1.95702 7.02242 1.76298 6.69113 1.73931 6.23679C1.70618 5.6168 2.00434 5.06781 2.62906 4.59927C2.8515 4.4289 2.94142 4.13547 2.84677 3.87044C2.84677 3.86571 2.64326 3.24099 2.97455 2.6494C3.29164 2.08148 3.99681 1.67447 5.0664 1.4473C5.92302 1.26272 7.08726 1.22959 8.51654 1.34318C8.53547 1.34318 8.55913 1.34318 8.5828 1.34318C11.6259 1.27692 14.7022 1.67447 14.7353 1.6792H14.74L15.218 1.73599C15.1896 1.86851 15.1754 2.01049 15.1754 2.15247V9.84784C15.1754 10.0513 15.2086 10.2501 15.2654 10.4347C15.1802 10.7518 14.9435 11.457 14.3851 12.058C12.2601 13.7428 10.1825 19.4268 10.0925 19.6729C10.0547 19.7723 10.0452 19.8812 10.0641 19.99C10.1446 20.5201 10.1162 21.1685 10.0026 21.3625C9.75177 21.3578 9.075 21.2868 8.66798 20.7236C8.18525 20.0563 8.20418 18.8636 8.72478 17.2829C9.51987 14.874 9.58613 13.6056 8.95668 13.0471C8.64432 12.7679 8.22784 12.7537 7.92495 12.8626C7.63626 12.9288 7.36176 12.9856 7.10146 13.0282C7.08253 13.0329 7.05887 13.0377 7.03994 13.0424C5.587 13.3595 2.98401 13.5535 2.08007 12.7301C1.31337 12.0296 1.85763 11.102 1.91916 11.0026C2.09426 10.7376 2.04221 10.3921 1.80557 10.1791C1.80084 10.1744 1.3039 9.70586 1.28024 9.07641C1.26131 8.6552 1.46008 8.22452 1.87183 7.79858Z" fill="white"/>
</svg>
