<svg width="30" height="15" viewBox="0 0 30 15" fill="none" xmlns="http://www.w3.org/2000/svg">
<path d="M15 0C9.37959 0 4.07143 2.64633 0 7.5C4.07143 12.3599 9.37959 15 15 15C20.6204 15 25.9286 12.3351 30 7.5C25.9286 2.64015 20.6204 0 15 0ZM15 13.8252C11.5469 13.8252 8.73673 10.9872 8.73673 7.5C8.73673 4.01278 11.5469 1.17477 15 1.17477C18.4531 1.17477 21.2633 4.01278 21.2633 7.5C21.2633 10.9872 18.4531 13.8252 15 13.8252Z" fill="white"/>
<path d="M14.9706 2.99596C12.4907 2.99596 10.4795 5.02704 10.4795 7.5315C10.4795 10.036 12.4907 12.067 14.9706 12.067C17.4505 12.067 19.4617 10.036 19.4617 7.5315C19.4617 5.02704 17.4505 2.99596 14.9706 2.99596Z" fill="white"/>
</svg>
