<svg width="44" height="44" viewBox="0 0 44 44" fill="none" xmlns="http://www.w3.org/2000/svg">
<circle cx="22" cy="22" r="20.5" stroke="#C0FF99" stroke-width="3"/>
<path d="M21.9998 22C23.0423 22 24.0614 21.6775 24.9282 21.0731C25.795 20.4688 26.4705 19.6098 26.8695 18.6048C27.2684 17.5998 27.3728 16.4939 27.1694 15.427C26.966 14.3601 26.464 13.3801 25.7269 12.6109C24.9898 11.8417 24.0506 11.3179 23.0281 11.1057C22.0057 10.8935 20.9459 11.0024 19.9828 11.4187C19.0197 11.8349 18.1965 12.5399 17.6173 13.4444C17.0381 14.3488 16.729 15.4122 16.729 16.5C16.7304 17.9583 17.2862 19.3564 18.2743 20.3875C19.2625 21.4186 20.6024 21.9986 21.9998 22ZM21.9998 12.8333C22.6948 12.8333 23.3742 13.0484 23.9521 13.4513C24.5299 13.8542 24.9803 14.4268 25.2463 15.0968C25.5122 15.7668 25.5818 16.5041 25.4462 17.2153C25.3106 17.9266 24.976 18.58 24.4845 19.0927C23.9931 19.6055 23.367 19.9548 22.6854 20.0962C22.0037 20.2377 21.2972 20.1651 20.6551 19.8876C20.0131 19.6101 19.4643 19.1401 19.0782 18.5371C18.692 17.9341 18.486 17.2252 18.486 16.5C18.486 15.5276 18.8562 14.5949 19.5151 13.9073C20.1741 13.2196 21.0679 12.8333 21.9998 12.8333Z" fill="white"/>
<path d="M22 23.833C19.9039 23.8354 17.8942 24.7054 16.412 26.2521C14.9298 27.7987 14.0961 29.8957 14.0938 32.083C14.0938 32.3261 14.1863 32.5593 14.351 32.7312C14.5158 32.9031 14.7392 32.9997 14.9722 32.9997C15.2052 32.9997 15.4287 32.9031 15.5934 32.7312C15.7581 32.5593 15.8507 32.3261 15.8507 32.083C15.8507 30.3812 16.4986 28.7491 17.6518 27.5457C18.805 26.3424 20.3691 25.6663 22 25.6663C23.6309 25.6663 25.195 26.3424 26.3482 27.5457C27.5015 28.7491 28.1493 30.3812 28.1493 32.083C28.1493 32.3261 28.2419 32.5593 28.4066 32.7312C28.5714 32.9031 28.7948 32.9997 29.0278 32.9997C29.2608 32.9997 29.4842 32.9031 29.649 32.7312C29.8137 32.5593 29.9063 32.3261 29.9063 32.083C29.904 29.8957 29.0702 27.7987 27.588 26.2521C26.1058 24.7054 24.0962 23.8354 22 23.833Z" fill="white"/>
</svg>
